<?xml version="1.0" encoding="UTF-8"?>
<svg id="Layer_2" data-name="Layer 2" xmlns="http://www.w3.org/2000/svg" viewBox="0 0 182.04 194.07">
  <defs>
    <style>
      .cls-1 {
        fill: #231f20;
        opacity: .05;
      }

      .cls-1, .cls-2 {
        stroke-width: 0px;
      }

      .cls-2 {
        fill: #fff;
      }
    </style>
  </defs>
  <g id="Layer_1-2" data-name="Layer 1">
    <g>
      <path class="cls-1" d="m30.26,1.06c-22.26,7.44-23.05,34.96-1,42.4-72.4,67.65,1.71,168.45,90.5,147.9,27.5-7.6,45.1-23.5,55.7-50.5C205.56,71.42,126.41,9.02,59.86,26.96,63.66,8.33,47.54-3.75,30.26,1.06Z"/>
      <g>
        <path class="cls-2" d="m30.26,1.06c-22.26,7.44-23.05,34.96-1,42.4-72.4,67.65,1.71,168.45,90.5,147.9,27.5-7.6,45.1-23.5,55.7-50.5C205.56,71.42,126.41,9.02,59.86,26.96,63.66,8.33,47.54-3.75,30.26,1.06Zm19.5,4.4c9.2,4.28,12.27,27.9,3.7,19.7-5.18-5.14-2.2-11.07-12-14.4-8.2-2.2-18.1,4.2-18.1,11.6-.71,10.77,13.59,8.86,12.8,15.1-.5,4.1-4.5,4.7-10.8,1.6C-.61,24.67,26.06-9.36,49.76,5.46Zm-7.6,7.9c3.2,1.2,6.2,4.6,6.2,6.8-6.77.61-15.72.38-19.3,7.8-.9,2-3.7-2.1-3.7-5.3.31-6.36,10.31-13.42,16.8-9.3Zm11.7,13.4l3.1,3.1c86.04-24.58,164.57,68.52,98,139.4C109.39,216.02,17.5,184.53,3.76,124.76-5.51,89.49,17.79,46.18,49.16,33.26c4.7-2,5.1-3.1,2.1-6.9-2.8-3.5-1.2-3.3,2.6.4Zm-13.5-.5c3.68,3.9-3.55,7.24-4.8,3.2-.26-2.93,2.52-6.68,4.8-3.2Z"/>
        <path class="cls-2" d="m74.36,32.36c-13.95,1.78,8.04,8.37,8.8,6.5.4-1.3,3.2-1.5,3.2-.3,0,3.5-20.5,4.1-26.8.8-10.13-3.93-4.81,3.01,5.5,3.9,5.7.8,5.8,1.1,3.1,8.4-1.57,4.29,0,2.57,4.2,1.3,22.83-5.5,46.37.32,64.1,16.1-.05-2.13-.61-8.99.1-9.9.3-.3,2.3-.1,4.5.5,2.1.6,6,1.1,8.6,1.1,4.6,0,4.7.1,3.6,2.2-4.25,12.01,7.32,17.82-13,10.9,18.22,20.78,15.3,55.78-8.3,70.1,3.36-.35,10.14-1.06,13.5-1.4-.56,4.27-1.5,13.09-.3,16.1,1,2.9.5,4-1.2,2.4-10.81-7.15-22.98,4.33-17.1-10,2.1-5,2-5.3-2.3-3.2-24.77,11.56-58.1.98-75.2-19.7v10.5c-5.39-1.27-14.55-.3-19,.6,2.25-4.13,3.62-12.17,2.3-17.5,4.53-.17,9.95.06,13.7,2-14.98-23.98-7.85-52.84,15.7-66.7-2.48-.64-12.49-1.04-10.9-3.8,1-6.3,1.3-13.5.6-13.5-2.1.1-2.9,1.8-3.1,6.7,1.57,5.21-11.38,24.73-8.2,12,1.24-3.63-.31-8.39-1.3-12.2-18.79,16.61-29.66,42.97-22.8,66.4,1.77,4.34,3.11,14.68,6.3,10.3,1.7-1.9,3.9-11,3.1-12.4,1.38-3.58,4.9,5.96,4.6,10.9.11,4.44-2.22,9.75-4.1,13.7,1.24,1.77,3.8,5.28,5.1,7,13.35.18,18.34-1.24,28.5,6.1-4.16.29-15.83,1.03-18,2.2-4.3,2.5,20.2,17.1,35.5,21.2,17.97,4.62,36.95,4.64,51.5-.6-5.77-3-12.93-6.07-19-5.5,9.57-4.93,16.57-6.19,29.1-.8,3.1,2.65,8.91-2.99,12.4-5.1-5.54-7.37-2.28-18.51,3.4-26.4,1.09,5.97,2.46,14.1,4.6,18.7,9.49-10.04,15.71-26.93,16-41.5.18-9.92-4.63-27.89-10.5-35.7-1.71-.1-3.76,11.56-4.1,15.5-4.39-6.06-6.29-12.32-4.3-20.9,2.58-8.07-2.85-11.42-11-11.9-8.28-.67-15.09-3.85-20.6-8.8,32.32,6.1,6.99-7.31-16-14.5-5.9-1.6-29.2-2.8-34.5-1.8Zm19,8c-.18,13.57-3.25,1.45-2.2-5.3.8-4.4,2.2-1.1,2.2,5.3Zm5-1.1c.05,1.92-1.98,1.95-2,0,.02-1.95,2.05-1.92,2,0Zm6.1.8c-.2,2.42-3.55-1.49-1.1-1.2.6.3,1.1.8,1.1,1.2Zm12.3.9c-2.1,6.8-3.2,9.2-4.2,9.6-2.13.58,5.36-18.2,4.2-9.6Zm-6.3,1.1c-1.3,1.3-2.6.3-1.6-1.2.74-1.4,3.22-.23,1.6,1.2Zm12.9,3.7c0,1.27-3,1.27-3,0-.02-1.31,3.02-1.31,3,0Zm-90.5,22c.68,1.51-2.7,1.05-2.5,0,.06-1.57,2.02-1.05,2.5,0Zm-.7,5.1c5.6,1.9,8.2,3.9,5,3.9-2.4,0-14.8-4.3-14.8-5.1,0-1.4,3.2-1,9.8,1.2Zm-4.8,6.4c.05,1.92-1.98,1.95-2,0,.02-1.95,2.05-1.92,2,0Zm-1.9,6.8c-1.3,1.3-2.6.3-1.6-1.2.74-1.4,3.22-.23,1.6,1.2Zm139,5c-1.3,1.3-2.6.3-1.6-1.2.74-1.4,3.22-.23,1.6,1.2Zm-139.1.8c-.5,1.85-4.58.57-2.4-1.4.8-.8,2.4.1,2.4,1.4Zm146,4.9c.51,1.3-15.51,1.3-15,0-.51-1.3,15.51-1.3,15,0Zm-137.5,1c.09,1.1-17.75,1.46-17.5,0-1.07-1.26,18.92-1.36,17.5,0Zm133.5,5c.04,1.27-1.97,1.29-2,0,0-1.32,2.06-1.3,2,0Zm-142,1.5c.05,1.92-1.98,1.95-2,0,.02-1.95,2.05-1.92,2,0Zm142,5c.05,1.92-1.98,1.95-2,0,.02-1.95,2.05-1.92,2,0Zm-.3,7.1c-.9.9-2.8-.6-2.1-1.8.69-1.4,3.02.98,2.1,1.8Zm-.9,3.5c7.69,2.44,9.98,6.09-2,1.7-9.25-2.68-9.47-5.88,2-1.7Zm-1.8,7.9c-.14,2.6-4.51-.73-1.6-1,.9,0,1.6.4,1.6,1Zm-88,24.5c0,1.2-5.2,14.1-6,14.9-3.54,3.75,4.06-19.63,6-14.9Zm-10,4.5c.04,1.27-1.97,1.29-2,0,0-1.32,2.06-1.3,2,0Zm30,9.1c0,4.6-.4,7.9-1,7.9-1.15,1.27-1.43-18.04,0-16.5.6.3,1,4.2,1,8.6Zm-18-4.1c.04,1.27-1.97,1.29-2,0,0-1.32,2.06-1.3,2,0Zm6,2c.04,1.27-1.97,1.29-2,0,0-1.32,2.06-1.3,2,0Zm6,1c.04,1.27-1.97,1.29-2,0,0-1.32,2.06-1.3,2,0Zm13,1c.04,1.27-1.97,1.29-2,0,0-1.32,2.06-1.3,2,0Z"/>
        <path class="cls-2" d="m78.86,54.76c-19.57,3.62-35.17,19.87-36.6,38.5,15.33-47.89,88.65-38.46,103.1,3.8,2.4,6.7,2.6,2.7.2-4.5-7.72-25.98-40.25-43.06-66.7-37.8Z"/>
        <path class="cls-2" d="m69.66,67.36c-.57,6.47,1.27,18.72,1.3,27.3.84,6.77-.76,13.33,3.2,10.3,1.86-1.64,4.81-1.52,5.5-4.3.5-2,4.1-2.6,5.2-.9.4.6,1.1.8,1.6.4,1.3-.7,3.8,2.5,3.9,4.8,0,.9,1.2,2.6,2.6,3.7,12.57,9.36,2.78,29.51,8.7,28.1,1.4,0,3.5-.8,4.8-1.8,4.13-5.05,14.95,10.47,13.1-3.4-.4-5-.2-5.4,2.7-7.6,10.16-6.64-9.93-6.32-14.5-13.5-6.58-5.64-3.95-6.34-8.4-12.2-1.6-2-2.7-4.1-2.4-4.6,14.72-5.95,15.01-4.6-1.7-14.5-7.76-3.26-23.9-17.53-25.6-11.8Zm9.7,6c-.28,1.02,30.34,14.28,18.8,11.9,0,0-4.7-.6-4.7-.6l-1,3.8c-2.55,4.35,3.88,8.76,1.5,11.2-2.42,1.55-5.05-5.66-9.4-5.3-3.9-.6-7.1-3-5.8-4.3.9-.83,6.68.98,8.5,1.4.77-2.13,2.22-6.44,2.9-8.6-2.81-1.8-12.24-7.98-13.8-8.1-1.49.56-.7,23.69-2.2,24.7-1,2.4-1.3,1.1-1.9-10.6.44-7.11-4.41-26.24,1-20.4.9,1.2,3.6,3.4,6.1,4.9Zm5.5,10.6c2.3,1,3.4,4.1,1.8,5.1-1.9,1.1-5.3-1.3-5.3-3.8q0-2.9,3.5-1.3Zm13.3,18.6c.4,2.6-2.2,4-4.3,2.2-3.37-2.84,3.63-7.7,4.3-2.2Zm12.8,13.3c1.13,1.3,10.36,3.86,6.9,3.8-3.44.74-11.12-6.86-14.9-8.8,1.47,4.92,9.48,16.39,11.6,21.4-9.94-8.5-6.81-11.09-13.1,1,.02-5.81-.18-12.71-2.2-18.5-1.9-5.9-2-6.5-.4-7.6,2.71-2.33,8.98,7.82,12.1,8.7Z"/>
        <path class="cls-2" d="m5.26,90.96c-12.09,63.41,57.88,113.64,116.4,95.9,17.8-5.52,32.29-15.23,38.1-27.6C102.72,210.29-1.47,163.33,6.66,83.76c0,0-.7,3.3-1.4,7.2Z"/>
      </g>
    </g>
  </g>
</svg>